<svg id="Camada_1" data-name="Camada 1" xmlns="http://www.w3.org/2000/svg" viewBox="0 0 6000 6000"><defs><style>.cls-1{fill:#fff;}</style></defs><title>icone</title><path class="cls-1" d="M1056.44,3678.85q0-395,0-790c0-30.66.89-61.33.86-92,0-10.54,2.29-19.71,9.54-27.48,1.35-1.45,2-3.54,3.48-4.87,16.53-15.29,19.7-35.59,21.37-56.47.69-8.63,1.58-17.27,1.89-25.92,1.15-32.45,12.2-62.58,21.37-93.18,3.45-11.48,6.77-23,9.32-34.75,3.85-17.71,10.4-34.31,17.64-50.87,8.52-19.48,15.14-39.77,22.94-59.57,3.14-8,7.12-15.65,10.88-23.38,4.94-10.16,10.86-19.92,14.9-30.42,7.94-20.66,17.1-40.44,31.5-57.55,3.8-4.52,7.61-9.61,9.48-15.1,8.13-23.79,23.1-43.34,37.74-63.15,1.58-2.14,3.54-4.07,4.82-6.37,14.64-26.33,35.9-47.82,52.88-72.44,2.62-3.8,6.14-7,9.24-10.46q8.6-9.65,17.17-19.32c1.31-1.49,2.19-3.49,3.71-4.68,15.37-12,26.34-27.84,38.79-42.49,12.06-14.17,25.73-27,39.29-39.85,17.91-16.93,35.52-34.38,54.88-49.52,24.06-18.82,48.55-37.28,75.48-52.1,5.18-2.86,10.44-6.24,14.38-10.56,8.2-9,17.76-15.73,27.88-22.35,11.25-7.35,22.58-13.83,35.29-18.33,6.75-2.39,13-6.6,18.88-10.89a173.48,173.48,0,0,1,38-21.66c14.75-6,28.88-13.72,42.6-21.85,22.51-13.33,46.67-22.53,71.21-31.08q18.84-6.56,37.39-13.91c16.1-6.42,32.19-12.56,49.28-16.17,18.88-4,37.33-10,56.23-14,17.56-3.65,35.43-5.82,53.21-8.37,18.44-2.65,36.94-5,55.41-7.45,8.28-1.11,15.38-4.46,20.33-11.4,6.85-9.58,16.47-12.61,27.75-13,41.29-1.52,82.56-4.78,123.85-4.81q767-.51,1534,0c39.29,0,78.57,2.91,117.87,4.25,13.86.48,26,3.9,35.68,14.83,5.91,6.68,14.34,9.65,23.11,10.89,15.83,2.23,31.64,4.79,47.56,6.15,16.65,1.42,33,3.57,49.25,7.87,20,5.29,40.33,9,60.32,14.27,16.09,4.21,32.11,9,47.73,14.63,26.91,9.79,53.26,21.13,80.28,30.61,20.37,7.16,37.87,19.42,56.84,29,6.53,3.3,12.87,7.22,19.75,9.49a113.56,113.56,0,0,1,38.08,21.45,67.74,67.74,0,0,0,24.44,13.08,77.3,77.3,0,0,1,29.29,16.61c22.94,20.43,49.4,36,74.87,52.91,22.7,15.1,44.54,31.43,64.47,50.17,10.2,9.59,20.7,18.85,30.89,28.43,4.35,4.09,8.28,8.62,12.38,13,6.85,7.27,13.3,15,20.62,21.72,8.84,8.17,17.75,16.12,23.95,26.64a20.31,20.31,0,0,0,5.14,6.08c15.86,11.48,26.08,28.36,40.06,41.63,3.36,3.19,6.88,6.56,9.14,10.52,6.35,11.16,15.06,20.25,23.66,29.58,4.9,5.32,8.44,11.89,12.63,17.87,8.4,12,16.91,23.85,25.24,35.87,11.37,16.4,23.47,32.4,31,51.1,8,19.88,18.53,38.33,30.28,56.2,5.08,7.72,9,16.22,13.28,24.45,4.92,9.41,9.64,18.93,14.51,28.37,3.35,6.48,8,12.56,10,19.41,8.28,27.52,19.22,53.92,31,80,4.09,9.05,6.52,18.87,9.33,28.45,7.9,26.84,16.34,53.56,23.12,80.68,4.35,17.36,6.5,35.31,9,53.09,1.83,13.19,2,26.61,4,39.76,1.49,9.82,3.37,20,7.39,28.92,7.23,16.11,10,33,13,50.12,2.28,13.07,5.56,26,8,39a105.28,105.28,0,0,1,1.86,17.8c.4,23.32.68,46.66.68,70q.06,752,0,1504c0,14.67-.06,29.34-.26,44-.29,21.24.91,42.54-6.53,63.18-2.66,7.39-3,15.69-3.89,23.63-1.62,14.7-5,28.87-11.43,42.25a96.92,96.92,0,0,0-9.08,34.59c-1.34,17.28-3,34.53-4.76,51.77-2.11,20.6-6,40.68-13.48,60.26-6.61,17.39-11.61,35.5-15.91,53.62-5.58,23.49-15.32,45.41-23.56,67.9-4.11,11.24-9.12,22.16-13.2,33.42-4.33,11.93-10.11,23.06-15.72,34.41-12.41,25.1-25.1,49.87-40.57,73.3a143.77,143.77,0,0,0-16.32,34.18c-6.41,19.6-19.81,34.43-31.19,50.73s-23.11,32.55-33.88,49.32c-4.76,7.41-9.62,14.45-16.7,19.61-6.67,4.86-11.06,11.22-15.1,18.28a101.9,101.9,0,0,1-13.12,17.4c-15.18,16.78-30.63,33.3-46.09,49.82-3.62,3.87-7.73,7.28-11.56,11-4.78,4.62-10.23,8.77-14.13,14.05-23.29,31.5-53.64,55.36-84.54,78.56-16.49,12.39-34.12,23.22-49,37.8a43.14,43.14,0,0,1-15.16,9.26c-10.26,3.72-18.63,9.68-26.89,16.7-12.15,10.34-25.46,19.31-38.28,28.84a13.92,13.92,0,0,1-3.36,2.16c-20.89,7.6-38.51,21.06-57.64,31.82-9.83,5.54-20.5,9.59-30.8,14.31-7.26,3.33-15.07,5.82-21.7,10.12-16.48,10.7-34.81,16.68-53.28,22.32-17.88,5.47-35.41,11.48-52,20.39-16,8.57-33.66,12.31-51.38,15.83-15.66,3.1-31.77,5.49-46.54,11.18-24.69,9.51-50.16,13.5-76.14,15.19a253.69,253.69,0,0,0-60.66,11.62c-15.14,4.8-31.17,6.77-46.8,10.05-11,2.32-22,4.85-33.09,7-5.83,1.15-11.76,2.35-17.66,2.48q-32,.74-64,.71-761,.06-1522,0c-16,0-32-.17-48-.35-14-.15-27.73-.1-41.12-6.12-7-3.16-15.57-3.28-23.5-4-18-1.55-35.66-4.65-52.65-11-15.73-5.92-32.09-8.69-48.8-10-14-1.08-27.89-2.4-41.77-4.13s-27.48-4.72-40.43-10.63c-15.27-7-31.69-10.24-48.28-12.32-20.78-2.61-39.92-10-58.67-19a190.62,190.62,0,0,0-29.61-11.74c-24.44-7-48.36-14.84-69.84-29-5-3.25-10.68-5.49-16.27-7.59a270.15,270.15,0,0,1-53.37-27.06c-9.42-6.17-19.86-10.76-29.78-16.18-6.42-3.51-12.85-7-19-10.93-7.87-5-15.49-10.36-23.22-15.55-1.66-1.11-3.78-1.82-5-3.28-10.5-12.71-23.92-20.81-39.36-26.12-3-1-5.51-3.74-7.85-6.06-14.74-14.66-32.14-25.76-48.91-37.82-15.06-10.83-28.54-23.87-42.67-36-2-1.73-3.55-4.05-5.66-5.63-25.87-19.33-45.41-44.82-66.81-68.5-11.15-12.33-22.23-24.74-34-36.52-9-9.06-17.11-18.54-22.83-30.07a29.73,29.73,0,0,0-7.73-9,98,98,0,0,1-23.78-29.28c-3.42-6.42-8.18-12.14-12.54-18-12.66-17.13-25.53-34.09-38-51.32a46.84,46.84,0,0,1-6.16-12.48c-3.88-11.5-10.2-21.55-16.67-31.72-7.84-12.33-14.37-25.49-21.6-38.21-11.19-19.7-17.2-42-30.18-60.78a33.63,33.63,0,0,1-4.15-9.07c-9.52-30.56-22.65-59.73-34.18-89.52a37.26,37.26,0,0,1-1.93-5.68c-6.93-32.65-17.69-64.17-27.91-95.87-7.23-22.42-6.57-46.1-9.39-69.22-.73-5.95-.91-12-1.43-17.94-1.62-18.42-6.82-35.37-20.86-48.38-10.08-9.34-12.71-20.84-12.66-34.22.16-41.33-.82-82.66-.84-124q-.15-377,0-754ZM3004.07,2134.91q-363.95,0-727.91.06c-28.65,0-57.34.19-86,1.34-40.06,1.61-79.62,6.92-118.14,18.77a291.18,291.18,0,0,1-50.75,10.81c-13.14,1.59-26.5,4.21-38.87,8.77-25.54,9.4-52.67,15-75.9,30.18a26.17,26.17,0,0,1-3.66,1.61c-28.53,12.94-56.16,27.45-81.52,46-3.19,2.34-6.69,4.83-10.41,5.78-15,3.81-25.62,13.7-35.58,24.67a96.83,96.83,0,0,1-8.62,8.33q-27.33,23.34-54.77,46.52c-9.65,8.17-19.78,15.83-29,24.47-20.39,19.16-35.75,43-56.74,61.63-2,1.73-3.18,4.27-4.82,6.36-7.41,9.42-15,18.67-22.18,28.28-3.92,5.28-8.53,10.77-10.17,16.87-4.1,15.32-12.44,27.92-22.29,39.74-8.21,9.86-14.72,20.63-18.74,32.78a109.94,109.94,0,0,1-18,33.23c-7.24,9.27-10.7,19.57-13.28,30.78-3.13,13.58-6.3,27.44-11.94,40.06-6.62,14.8-11.7,29.66-13.49,45.73a160.47,160.47,0,0,1-10.26,40.58,192.61,192.61,0,0,0-7.92,26.8c-8.52,37.17-12,75-12.74,113q-.86,43-.88,86-.08,706.91,0,1413.82c0,52-.32,103.95,4,155.86,2.16,26.1,6.36,51.76,14.85,76.32,6.59,19.05,10.83,38.36,14.41,58.05,2,11.08,4,22.82,9.23,32.51,7.81,14.48,11.88,29.6,14.28,45.44,1.65,10.86,5.58,20.38,12.9,28.7,8.45,9.6,14.16,20.7,18.42,32.89,3.25,9.3,7.36,19.12,13.76,26.33,12.75,14.34,21.08,30.64,27.15,48.43a61.32,61.32,0,0,0,16.18,24.86c5.75,5.51,10.93,11.64,16.12,17.7,10.38,12.14,20.36,24.63,31,36.58,8.39,9.47,17.5,18.3,26.21,27.48,16,16.85,35.1,30.29,51,47.26,2.23,2.38,5.46,3.8,8.1,5.82,3.7,2.84,7.45,5.63,10.88,8.77,11.29,10.35,22.61,20.69,33.61,31.36,6.81,6.62,14.14,12.08,23.34,14.87,9,2.75,16.81,7.73,24.34,13.44,6.85,5.2,14.07,10.68,22,13.53,21.62,7.75,40.21,20.74,59.42,32.62,9.3,5.75,18.76,9.7,29.57,11.17A173.14,173.14,0,0,1,1990,5182a160.36,160.36,0,0,0,28.38,9.5c22,5.5,44,10.85,66.21,15.3,23.51,4.72,47.12,9.35,70.91,12.2,37.73,4.54,75.72,5.3,113.75,5.28q738.9-.21,1477.81-.1c11.33,0,22.67.06,34-.2,35.35-.82,70.63-3.27,105.37-9.86,36-6.82,71.77-14.84,107.52-22.88a108.12,108.12,0,0,0,26.26-9.44,127.59,127.59,0,0,1,49.61-14.16c10.86-.88,20.35-4.77,29.64-10.75a447.06,447.06,0,0,1,46.72-26.6c12.65-6.12,25.12-12.11,36.24-20.86a93.3,93.3,0,0,1,18.59-11.6c21-9.57,37.84-24.67,54.71-39.76,17.34-15.5,34.39-31.32,51.65-46.92,2.45-2.22,5.48-3.79,8-5.92,4.09-3.39,8.23-6.77,12-10.53,27.22-27.48,53.08-56.1,76.1-87.32a236.47,236.47,0,0,0,22-35.56,196.92,196.92,0,0,1,17.45-29c8.34-11.38,16-23,20.68-36.32a105.43,105.43,0,0,1,17.21-31.43,62.88,62.88,0,0,0,13.24-30.82c2.2-14.56,5.43-28.72,13.63-41.45,2.79-4.34,4-9.86,5.22-15,2.67-11.69,4.63-23.54,7.32-35.22,2.53-11,4.7-22.25,8.63-32.78a294.38,294.38,0,0,0,18.06-83.76c2.55-38.54,4.42-77.21,4.44-115.83q.43-716.91.29-1433.82c0-50-.85-99.95-3.74-149.87-2-34.1-7.46-67.67-18.77-99.89a247.15,247.15,0,0,1-11.05-42.36c-1.81-11.1-3.85-22.67-8.63-32.67a202.09,202.09,0,0,1-16.86-53.16,58.3,58.3,0,0,0-12.1-26.94c-7.84-9.94-14.33-20.81-18-33.19-3.26-11-9-20.6-16.17-29.64-10.69-13.59-21.49-27.19-27-44.07-1.21-3.7-3.72-7.06-6-10.29q-12.8-17.83-25.89-35.43c-4.39-5.85-8.34-12.47-14-16.86-12.3-9.61-21.11-21.95-30.69-33.9-7.44-9.28-16.65-17.18-25.41-25.33-5.34-5-11.43-9.14-17-13.88-25.33-21.57-50.45-43.4-76-64.71-6-5-13.49-8.45-20.32-12.55-5.7-3.42-12.22-5.9-17-10.28-8.54-7.79-18.38-13.16-28.42-18.41-18.86-9.85-36.25-22.57-56.9-28.92a25.48,25.48,0,0,1-7-3.9c-10-7.17-21.29-10.75-33-13.66-7.72-1.9-15.58-4-22.71-7.41-14-6.73-28.8-10.08-44-12.51-16.42-2.63-33.06-5-48.94-9.71-45.07-13.44-91.14-19.55-137.94-21-24.65-.76-49.32-.94-74-1Q3369,2134.85,3004.07,2134.91Z"/><path class="cls-1" d="M3661.07,1159.61a38.89,38.89,0,0,0-18.53,19.93,89.63,89.63,0,0,0-5.31,15.07,67.62,67.62,0,0,1-20.88,35.63c-6.52,5.89-11,13.13-14.93,21-9.78,19.68-20,39.13-30.4,58.5a83.29,83.29,0,0,1-10.23,14.67c-6.51,7.57-13.24,15-20.43,21.94-15.53,14.94-29,31.21-37,51.55a33.75,33.75,0,0,1-15.83,17.43c-22.59,12.3-36.73,32.45-49.79,53.47-5,8.1-11.4,14.34-18.64,20.45-14.71,12.41-30,24.46-40.7,41a36.47,36.47,0,0,1-7.87,9c-11,8.57-22.17,16.94-33.53,25-7.64,5.42-15.66,2.95-22.54-1.43-11.33-7.22-21.07-16.32-27.44-28.45-1.85-3.54-3.3-7.28-5.06-10.88-7.29-14.9-14.27-29.71-25.21-42.81-9.7-11.61-16.44-25.77-24-39.1-7.11-12.57-16.11-22.77-29.89-28.17-8.3-3.25-14.47-9.39-20.28-15.88-13.87-15.47-29.95-28.28-46.7-40.51-19.88-14.52-39.26-29.76-55.32-48.75a48.59,48.59,0,0,0-12.08-10.34c-10.55-6.26-18.69-14.76-26.11-24.37-11.92-15.44-28.94-25.4-42.87-38.73-5.28-5.06-11.16-9.5-16.72-14.27a86.14,86.14,0,0,1-22.8-30c-6.14-13.49-14.05-25.74-27-33.94-5.89-3.73-9.25-9.44-11.74-15.76-2.93-7.44-5.94-14.85-8.8-22.32-8.8-23-17.49-46-26.4-69a67.86,67.86,0,0,0-6.27-12.45c-5.75-8.84-17.66-8.07-22.62,1.28a35.2,35.2,0,0,0-2.16,5.58q-31.16,96.14-12.3,195.41c5,26.18,9.91,52.37,15.2,78.48a157.34,157.34,0,0,0,6.63,23c7.6,20.62,15,41.33,23.62,61.54,7.26,17.08,14.09,34.45,24.76,50a66.85,66.85,0,0,1,8.92,19.9c4.18,15.25,11.3,28.25,23.63,38.46,4.57,3.78,8.08,8.81,12.11,13.25,6.69,7.37,13.06,15.08,20.24,21.95,5.39,5.16,10.54,10.29,12.83,17.49,4.11,13,11.8,23.72,19.69,34.54,4.23,5.8,8.19,12.33,10.18,19.13,4.94,16.87-5.32,27.75-22.29,24.26a171.15,171.15,0,0,1-23.1-6.42c-21.92-7.85-43.68-16.15-65.53-24.19-25.85-9.5-48.91-24.09-71.88-38.91-9.48-6.11-19.08-12.17-29.16-17.18-17.37-8.62-33.51-18.46-48.28-31.46-13.86-12.19-29.93-22.35-46.24-31.16-21.71-11.74-38.68-28.37-53.48-47.26-10.6-13.54-22.33-24.48-38.85-29.94-11.17-3.69-19.29-10.88-25.47-21.2-10.38-17.36-25.39-31-41.12-43.15-12.06-9.29-21.42-20-28-33.17-6.06-12.09-14.51-21.9-23.47-31.93-14.57-16.33-31.14-31.11-42.42-50.27a43.2,43.2,0,0,0-6-8c-12.11-12.59-22.29-26.36-28.14-43.09-1-2.91-3.85-5.18-5.41-7.19-5.29-.33-7.32,2.73-7.94,5.85-2.31,11.72-5.54,23.51-5.8,35.33-.9,40.64-1,81.3-.79,122,.07,16,1.13,32,2.57,47.86,1.14,12.73,4.35,24.89,14.07,34.44a23.92,23.92,0,0,1,6,10.26c4.85,17.65,15.94,32.1,23.88,48.15,6.48,13.09,11.5,26.9,17.51,40.24q6.95,15.42,14.76,30.45c4.91,9.45,10.67,18.45,15.47,28,4.26,8.43,9.19,16,16.48,22.28,15.92,13.66,18.61,31.63,14.75,51-2.48,12.44-10.94,17.7-23.44,15.67a23.56,23.56,0,0,1-7.59-2.36c-23.82-13.28-49.75-22.43-72.4-38.16-10.85-7.53-23.62-12.25-35.26-18.72-8.1-4.5-15.8-9.73-23.59-14.78-4.47-2.89-8.5-6.56-13.18-9-9.8-5.15-17.21-12.3-21.85-22.43a33.41,33.41,0,0,0-14.64-15.92c-2.33-1.26-5-2.48-6.61-4.44-15.26-18.33-34-33.64-46.49-54.4-6.15-10.26-12.86-20.19-19.27-30.3-2.49-3.93-5.5-7.7-7.12-12-4.13-10.93-10.9-19.75-19.68-27.22-6.33-5.39-10-12.36-12.06-20.29-1.68-6.45-3.27-12.93-5.21-19.3q-7-22.9-14.21-45.72c-12.24-38.7-13.91-78.45-12.42-118.64,1.18-31.59,8.18-62,16.72-92.18,6.16-21.81,12.21-43.64,18-65.55a80.25,80.25,0,0,1,15.43-30,233.24,233.24,0,0,0,39.91-73.15c3.82-11.65,9-22,17.85-30.69,4.24-4.13,7.21-9.54,10.89-14.26,9-11.55,17.69-23.33,27.2-34.43a72.19,72.19,0,0,0,13.22-22.16c3.61-9.83,10-16.93,19-22.36a72.3,72.3,0,0,0,15.46-12.4c13.11-14.12,25.5-28.93,38.63-43a45,45,0,0,1,14.35-10.48c18.29-8,32.46-20.82,43.93-36.73,9-12.53,21.81-19.44,35.55-24.8,17.83-7,36.07,2.79,39.56,21.8,2.76,15,3.61,30.4,5.08,45.65,2.52,26.07,7.68,51.39,21.06,74.34,3.28,5.62,6.2,12,13.59,13.22,5.9-1.45,6.93-6.39,7.91-10.77,2.17-9.75,4-19.59,5.5-29.46a170,170,0,0,1,20.3-58.19c2.28-4.06,5.22-8,6.53-12.33,10-33.35,29.76-62.41,41.55-95,1.57-4.35,3.4-9,6.43-12.33,10.18-11.17,14.75-25,20.57-38.48,12.42-28.77,27.53-56.24,43.85-83a42.41,42.41,0,0,1,7.69-9.11,212.59,212.59,0,0,0,46.29-59.62,64.48,64.48,0,0,1,17.92-21.1c16.25-12.83,31.63-26.59,41.63-45.29a39.79,39.79,0,0,1,7.33-9.44c20.94-20.45,40.1-42.73,63.68-60.5,12.74-9.59,24.26-20.79,36.43-31.14,5.07-4.31,10.4-8.31,15.63-12.41,15.29-12,31.38-22.37,50.64-27.12,8.74-2.16,15-8.55,20.66-15.16,8.34-9.72,17.45-18.34,29.32-23.62a10.92,10.92,0,0,0,3.35-2.17c15.58-15.77,36-22.22,56.1-29.3,8.77-3.08,17.09-7.42,25.79-10.72,10.57-4,21.27-7.72,32-11.23,7.59-2.47,15.39-4.28,23-6.57,18.31-5.48,34.27,3.61,36.67,22.62,1.57,12.44.73,25.26.21,37.88-2,49.43-1.45,98.84,9.93,147.15,7.45,31.65,13.06,64,27.19,93.85,3.42,7.22,6.48,14.71,10.77,21.39,10.19,15.86,17.2,33.1,23.26,50.76,3.49,10.15,8.72,19.17,13.87,28.52a208.58,208.58,0,0,0,34.38,46.08c4.48,4.56,6.94,11.27,9.69,17.28,4.2,9.16,9,17.76,16.24,25a47.86,47.86,0,0,1,9.62,12.65,107.55,107.55,0,0,0,20.54,29.26c4.06,4.13,6.77,9.83,9.27,15.21,4.76,10.27,9,20.77,13.31,31.26,4.84,11.86,11.18,22.82,20.35,31.77,8.81,8.6,14.72,18.77,19.12,30.1,2.65,6.82,5.26,13.85,9.23,19.9s9.32,11.16,14.57,16.16c3,2.88,8.16,2.06,10.77-1.18a41.5,41.5,0,0,0,5.28-8.38,143.23,143.23,0,0,0,12.24-42.06c1.33-9.89,2.7-19.84,5-29.54,4.12-17.42,16.07-27.69,33.35-29.75,6.87-.82,13.25.13,18.79,4.74,13.79,11.5,27.54,23,41.51,34.32,6.16,5,12.41,10.15,19.37,13.8a87.7,87.7,0,0,1,23.89,17.81c10.9,11.67,21.58,23.55,32.71,35,4.11,4.23,8.74,8.52,14,11,17.75,8.32,30.08,21.46,38.56,38.92,2.87,5.91,7,11.33,11.32,16.39,13.31,15.76,26.76,31.41,40.55,46.75,5.45,6.06,10,12.39,12.72,20.08,2,5.65,4.87,11.09,6.17,16.88,4.64,20.74,17,37.36,28,54.78,6.38,10.07,12.58,20.46,17.14,31.43a691.73,691.73,0,0,1,28.62,85.19c2.09,7.71,4.62,15.3,6.8,23,1.63,5.77,3.72,11.52,4.41,17.41,5.63,48,5.94,95.74-7.33,142.76-1.62,5.76-3.56,11.45-5.59,17.09-5.89,16.28-11.74,32.57-17.94,48.74-3.08,8-5.64,16.74-10.64,23.52-9.92,13.45-19.06,27.22-26.64,42.11-5.12,10.06-11.33,19.58-16.23,29.74-5.6,11.59-12.52,22-22.49,30.2-1.54,1.27-3.42,2.39-4.42,4-13.74,22.57-39.22,33.89-53.57,55.92-2.1,3.22-5.59,5.81-8.93,7.89-18.09,11.24-35.79,23.3-54.7,33-15.44,7.89-31.14,15.16-45.4,25.1-15,10.48-32.11,16.06-49.45,20.94-8.49,2.39-14-.71-16.94-9.3-5.26-15.22-1-28.94,7.62-41.57a308.2,308.2,0,0,1,19.11-25.59c12.39-14.55,19.14-32,25.58-49.42,9.45-25.6,18.36-51.41,27.14-77.25,8.35-24.56,17.92-48.82,20.25-75,.41-4.64,1.38-9.27,1.4-13.91.18-42,1-84-.08-125.94-.55-21.2-2.89-42.58-9.43-63.09C3671.66,1169.67,3669.84,1162.39,3661.07,1159.61Z"/><path class="cls-1" d="M4005,3679.31c-1.49,49.45-2.66,90.76-4,132.06-.65,20-3,39.84-8.65,59.2-2,7-3,14.34-4.38,21.53-3.31,17-7.1,33.77-14.07,49.9-4.43,10.24-6.4,21.67-8.51,32.76-1.88,9.88-4.21,19.42-8.53,28.59-3.39,7.19-5.37,15-8.22,22.49-3.31,8.67-6.86,17.26-10.4,25.85-.75,1.84-2.4,3.4-2.82,5.27-5.1,22.33-17.86,41.45-26.14,62.45a300.18,300.18,0,0,1-17.14,36.05c-9,16.22-19.08,31.89-28.76,47.75-9.34,15.29-18.64,30.61-28.21,45.75-6.4,10.12-12.53,20.54-20,29.8-19.68,24.27-40.11,47.94-60.12,71.95-8.51,10.21-16.54,20.83-25.13,31-7.3,8.64-15,16.93-22.67,25.27a37.51,37.51,0,0,1-7.3,6.74c-21.65,13.58-38.81,32.44-57.77,49.13-12,10.57-23.82,21.08-37.49,29.62-10.1,6.31-19.09,14.4-28.68,21.56-12.23,9.13-24.27,18.56-36.94,27-11,7.37-22.31,14.71-34.38,20-17,7.5-32,18.63-49.82,25-19.84,7.07-37.73,19.42-57.24,27.64-20.77,8.76-42.27,15.93-63.79,22.71-10.79,3.4-21.62,6.19-31.94,11.17-7.68,3.69-16.32,5.8-24.77,7.39-12.52,2.35-24.74,5.15-36.2,10.95a48.32,48.32,0,0,1-13.16,4.63c-39.37,6.89-78.67,14.37-118.23,19.91-23.7,3.32-47.84,3.41-71.77,5.11-7.31.52-14.61,1.36-21.86,2.38-14.62,2.05-29.11,1.57-43.82,0-25.17-2.7-50.45-4.52-75.73-6-26-1.53-51.78-4.16-77.24-9.9-11.69-2.64-23.55-4.59-35.39-6.49-16.5-2.65-32.59-6.19-48-13.3-8.3-3.83-17.82-5.3-26.95-7a124.22,124.22,0,0,1-32.21-10.27c-7.65-3.76-16.25-5.84-24.62-7.84-9.79-2.33-19.41-4.78-28-10.32-1.68-1.08-3.42-2.39-5.29-2.77-21.82-4.41-40.28-17.08-60.82-24.62-5.56-2-10.68-5.29-16-7.95-6.51-3.26-13.09-6.37-19.54-9.74s-12.84-6.79-19.08-10.51c-10.82-6.47-21-14.23-32.37-19.52-14.62-6.81-27.12-16.7-40.64-25.06a300.75,300.75,0,0,1-31-21.84c-25.33-20.49-50.5-41.2-75.25-62.39-16.14-13.82-32.09-28-46.94-43.19-16.74-17.1-32.93-34.87-48-53.49-23.37-29-45.93-58.59-68-88.51-9.84-13.31-18.18-27.78-26.46-42.16-6.63-11.5-15-21.76-20.65-34.08-8-17.43-18.51-33.67-27.74-50.52-2.22-4.07-3.29-8.76-5.46-12.86a463.75,463.75,0,0,1-28.42-65.72c-9.5-27.52-23-53.79-27.38-83.08a131.36,131.36,0,0,0-7.43-28.91,155.27,155.27,0,0,1-9.93-40.64,583,583,0,0,0-10.94-62.95,325.54,325.54,0,0,1-7.1-57.42c-2.32-55.94-3.06-111.93-.4-167.91,1.36-28.69,4-57.09,10.93-85.12,3.65-14.81,5.11-30.2,7.15-45.38,2.14-15.92,5.47-31.39,11.49-46.42,3.43-8.55,5.06-17.91,6.81-27,2-10.55,4.92-20.49,10.25-30.05,4.12-7.4,6.49-16,8.5-24.32,2.52-10.43,5-20.66,11-29.81a36.88,36.88,0,0,0,4.74-10.94c3.14-12.36,7.23-24.13,14.73-34.73,3-4.21,3.91-9.85,5.93-14.77s3.41-10.38,6.54-14.49c6.21-8.17,9.91-17.24,12.8-26.89,1.13-3.79,2.53-7.81,4.9-10.87,10.22-13.18,15.1-29.42,26.06-42.43,9.3-11,15.19-24.9,23.07-37.21,6.42-10,13.27-19.84,20.41-29.38,25.07-33.51,48.8-68.15,80.41-96.22a36.34,36.34,0,0,0,7.48-9.26c6.29-11.28,15.22-20.1,24.81-28.48,23.54-20.57,46.55-41.76,70.51-61.82,12.18-10.2,26.07-18.34,39-27.67,10.77-7.77,21.28-15.9,31.88-23.9,2.12-1.61,3.91-4.23,6.26-4.87,17.18-4.66,29.69-17.26,44.57-25.8,9.79-5.63,19.31-11.76,28.76-17.94,26.2-17.14,55-29.45,82.12-45,6.74-3.88,14.77-6,22.49-7.61,9.94-2,19.35-4.81,28-10.14,2.83-1.74,5.78-3.86,8.92-4.42,27-4.82,51.27-18.7,78.46-23a96.16,96.16,0,0,0,26.59-8.19,135.27,135.27,0,0,1,38.1-11.54c25-4,49.89-9.81,75-11.29,49.2-2.89,98.54-4.24,147.84-4.48,36.62-.18,73.33,1.36,109.86,4.1,27.17,2,54.16,7,81.14,11.17a87.29,87.29,0,0,1,22.89,6.89c13.41,6.2,27.43,10.19,41.59,14,9,2.43,17.49,6.66,26.51,8.86,27.82,6.82,54.69,16.47,81.86,25.33,21.79,7.12,42.46,15.24,61.29,28.31,5.93,4.13,12.81,7.1,19.58,9.77,16.27,6.42,30.48,16.09,45,25.73,17.62,11.74,34.77,24.32,54.32,33.2,9.5,4.32,17.68,11.66,26.24,17.93,6.42,4.71,12.11,10.52,18.83,14.72,12.5,7.81,24.44,16.1,34.08,27.44,2.54,3,5.94,5.31,9.1,7.72s6.86,4.25,9.79,6.92c25.06,22.86,52.51,43.18,74.77,69,12.15,14.08,23.37,29,35,43.5.83,1,1.31,2.45,2.3,3.25,21.69,17.36,33.42,43,52.38,62.71,5,5.19,10,11.33,12.34,18,6.28,18.11,18.09,32.52,29.49,47.18,6.21,8,10.37,17,15.63,25.41,17.73,28.36,27,60.8,44.17,89.4a40.89,40.89,0,0,1,5.29,12.89,118.6,118.6,0,0,0,16.12,40.6,23.55,23.55,0,0,1,2.39,5.49c6.08,19.68,12.17,39.35,18.11,59.07,3.26,10.84,5.36,22.11,9.5,32.59,15.35,38.9,22.62,79.53,25.08,120.9C4003,3596.78,4003.75,3642.13,4005,3679.31ZM2945.11,3902q0,76,0,152c0,10,0,20-.79,30-1.4,18.08-7.73,25-25.9,26.88-11.88,1.22-23.95.9-35.93.68-11.71-.22-22.29-3.66-30.17-13.13-5.41-6.49-12.44-9.71-20.92-10.2-7.43-.44-14.78-2-20.35-7.25-10.64-10-23.14-15.4-37.44-17.35-6.65-.91-10.51-5.4-12.38-11.61-1.53-5.1-2.56-10.37-4.29-15.4-1.51-4.36-2.77-9.34-5.74-12.58-9.42-10.23-19.24-20.17-29.62-29.41-5.73-5.1-9.67-10.49-11.81-17.89a142.08,142.08,0,0,0-9.3-24.15c-5.4-10.74-10.72-21.12-12.17-33.5-1.4-11.92-8-17.1-20.6-17.47-16-.46-32-.17-48,.4-11,.4-21,3.33-27.28,13.8-4.17,6.94-11.21,8.88-19,8.94-8,.07-16-.07-24,.75-17.45,1.79-23.68,7.82-24.61,25.41-.85,16-.25,32-.23,48a19.13,19.13,0,0,0,5.93,14.4c7.56,7.14,11.2,16.32,14.43,25.88,3.46,10.23,8.72,19.58,16.91,26.76,7,6.1,10.4,13.53,11.27,22.58,1.07,11.08,6.21,20.2,14,28,17,17,33.95,33.89,50.67,51.09,8.21,8.44,17.34,14.52,29.47,15,9.5.36,16.08,5.35,21.39,12.86,3.83,5.43,8.13,10.55,12.42,15.64,9.49,11.29,21.51,17.51,36.41,18.19,7.32.33,14.6,1.32,21.9,2,8.2.76,15.88,3.24,21.83,8.93,11,10.51,24.14,12.83,38.7,12.57,24.66-.45,49.33.11,74-.09,14.29-.12,26.39,3.08,33.11,17.32,1.38,2.94,3.85,5.43,6.07,7.91,8.93,10,12.32,21.59,12,34.93-.45,22-.27,44,0,66a145.24,145.24,0,0,0,2.21,21.8,16.43,16.43,0,0,0,12.87,13.85A88.3,88.3,0,0,0,2980,4417c24.66.29,49.33.11,74,.08,2.66,0,5.33-.08,8-.25,20-1.28,24.16-5.27,24.74-25.7.52-18,.16-36,.23-54q0-16,.22-32c.14-13.25,5-24.07,14-34.16,11.07-12.45,24.17-18.31,40.38-18.34,22,0,44,0,66-.09,6.66,0,13.33-.13,20-.37,9.71-.35,18.3-2.93,24.18-11.59,4.41-6.52,11.19-8.64,18.71-10.15,6.37-1.28,13.06-3.46,18.36-7.07a82.51,82.51,0,0,1,33-13.61c9.06-1.54,16.65-4.89,21.46-12.92s11.88-12.06,21.17-13.05c13.1-1.39,23.42-8,33.3-16.65,10.11-8.87,18.31-19.23,27.36-28.94,7.55-8.11,12.62-17.16,14.1-28.08,1.1-8.13,3.3-15.53,9.65-21.33,5.62-5.13,8.5-11.84,9.56-19.33a51.8,51.8,0,0,1,16.38-31.26c7.3-6.88,10-15.28,10-25.15q-.15-86,.08-172c0-14-4-26-14.34-35.94a45.76,45.76,0,0,1-13.63-26.19,32.08,32.08,0,0,0-9.9-19.15c-6.28-5.8-8.62-13.29-9.14-21.52-.82-12.71-6.67-22.68-16-31.12a111.52,111.52,0,0,1-15-16c-11-14.81-25.41-23.17-43.68-25-9.07-.92-16.15-5-22.27-11.88-3.34-3.78-8.34-7.64-13.06-8.37-14.34-2.23-26.26-9.2-38.33-16.35-4.55-2.69-9.42-5.36-14.5-6.53-10.27-2.36-18.42-7.41-24.59-15.84-4.72-6.47-11.51-8.85-19.08-9.35-7.31-.47-14.65-.74-22-.86-10.67-.17-21.33-.18-32-.15-7.06,0-13.74-1.71-17.42-7.89-8-13.44-20.77-15.43-34.49-15.84-6-.18-12-.11-18-.7-13.41-1.31-17.42-4.83-19.25-18.41-1.15-8.54-1.15-17.28-1.16-25.92q-.12-128,0-256c0-14.66-.11-29.34.46-44a47.42,47.42,0,0,1,3.62-17.34c1.72-3.81,5.91-8.39,9.66-9.09,21.3-4,42.61-6.09,59.54,12.18,4.61,5,9.8,9.15,17,9.47,12.87.58,22.42,7.65,31.41,15.89,16.2,14.84,32,30.13,48.76,44.31,11.1,9.4,15.82,21,17,34.81.48,6,.53,12,1.2,17.95,1.75,15.6,8.46,22.5,23.9,24.36,5.27.63,10.65.42,16,.42q41,.06,82,0c29.89,0,29.57-.31,49.68-21.33,7.67-8,10.31-16.69,9.47-27.16-.77-9.52-3.56-18.43-9.27-26a44.09,44.09,0,0,1-9.12-21.83c-.89-7.63-4-14.27-10.31-18.69-7.78-5.43-11.11-12.91-12-22-1.22-12.57-7.18-22.64-16.39-31.08q-22.83-20.91-45.45-42a58.31,58.31,0,0,1-8.23-8.63c-11.69-16.49-26.85-29.22-42.39-42-22.67-18.56-16.45-16.74-50.24-19.5-10.23-.84-19.78-3.11-27.45-10.41-9.3-8.86-20.46-11.55-33-11.3-20.65.4-41.33.32-62,0-8.61-.15-17.23-1.38-25.8-2.43-8.23-1-13.25-6.25-15.25-13.91a77.69,77.69,0,0,1-2.53-17.68c-.37-15.33-.11-30.66-.21-46a118,118,0,0,0-.69-16c-2.33-16.27-8.33-22.58-24.83-23-29.31-.7-58.65-.22-88-.24-9.51,0-16.28,4.87-22,12-4.87,6.08-6.21,13.12-6.22,20.61,0,15.33,0,30.66-.14,46,0,5.32.15,10.75-.81,15.94-2.11,11.42-8.43,19.78-20.34,21.9a187.32,187.32,0,0,1-27.75,2.79c-20,.52-40,.38-60,.56-9.58.09-18.8,2-26,8.7-11.59,10.87-25.4,13.89-40.62,13.09-3.32-.18-6.67.15-10,.05-8.47-.23-15.82,2.14-21.14,9.1a33.3,33.3,0,0,1-21.78,13c-22,3.59-36.73,17.46-49.68,34.24a140.31,140.31,0,0,1-14.86,16c-13.06,12.37-26.2,24.67-39.63,36.62-12.27,10.92-18.59,24-17.42,40.63.38,5.3-.11,10.66-.15,16-.07,7.78-2.5,14.68-9,19.12-11.26,7.65-14.19,18.88-14.21,31.33-.06,43.33.09,86.66.11,130,0,13.26,4.06,24.93,13.42,34.47a33.81,33.81,0,0,1,10,21.26c.75,8.4,4.11,15.22,10.8,20.58,5.31,4.24,8.57,9.8,10.46,16.57,5.91,21.26,18.17,38.25,35.8,51.53,4.2,3.16,8.61,6.7,11.29,11.06,5.36,8.74,12.4,13.57,22.64,14,10,.41,17.45,5.61,24.29,12.42,8,8,17,15.1,24.57,23.45,8.38,9.2,18.17,13,30.3,11.88,3.3-.29,6.66.2,10,.14,9.07-.16,17.25,2.54,23.9,8.58,11.6,10.55,25.46,13.92,40.57,14,4,0,8,.21,12,.49,11.55.82,22.4,3.58,30.94,12.09,6,6,13.32,8.32,21.67,8.75a103.66,103.66,0,0,1,17.79,2.48c13.26,3,20.75,11.29,22.36,24.75.71,5.93.48,12,.49,18Q2945.15,3818,2945.11,3902Z"/><path class="cls-1" d="M4005.16,2922c-20.73-1.77-45.27-3.75-69.78-6a60.6,60.6,0,0,1-31.19-12c-13.35-9.82-28-17.86-41.94-26.91-5.55-3.6-12-6.88-15.76-12-16-21.89-36.8-40.33-47.45-66.24a290,290,0,0,0-19.14-37.28,81,81,0,0,1-11.33-39.94c-.58-24.6-.39-49.26.59-73.85.73-18.26,7.37-35.18,16.21-51,9.09-16.28,18.2-32.61,28.54-48.09,9.2-13.78,20.09-26.44,30.3-39.53a17.45,17.45,0,0,1,4.36-4.09c33.94-20.9,66.83-43.9,107.36-51.12a280.85,280.85,0,0,1,118.87,3.84c3.23.8,6.69,1.39,9.49,3,17.23,10.05,36.86,15.07,53.31,27,10.68,7.75,22.88,13.18,32.81,22.43,14.83,13.81,27.15,28.94,35.17,47.82,4.11,9.66,10.5,18.45,16.57,27.13,5,7.2,9.17,14.38,10.79,23.24,8.46,46.25,10.77,92.57,2.77,139.12-3,17.25-7.44,33.62-19.47,47.37-4.66,5.32-7.14,12.7-10,19.41-5.26,12.43-13.32,22.63-22,33-18.32,22-42.31,36-65.54,51.43-16.43,10.89-33.93,18.19-53.85,19.29C4046.3,2919,4027.71,2920.46,4005.16,2922Z"/><path class="cls-1" d="M3086.94,3919.74V3773.87c0-3.33,0-6.66,0-10,.5-21.09,4.44-25.19,26.07-26.33a138.37,138.37,0,0,1,20,.26c10.15.94,19.58,3.44,25.4,13.3,4.43,7.51,11.82,10.24,20.31,10.71a47.87,47.87,0,0,1,30.59,13.07c6.49,6,14.05,10.28,22.83,11.63,9.16,1.41,15.84,6.57,21.89,13,10.95,11.6,22.12,23,32.63,35a30.53,30.53,0,0,1,7,14c1.87,10.44,7,18.42,14.44,25.55,8.05,7.76,12,17.59,12.27,28.67.39,14,.46,28,.53,42a37.76,37.76,0,0,1-9.52,25.65c-8,9.16-14.26,18.89-16.53,31.34-1,5.44-5.15,10.69-8.92,15.14-5.58,6.59-12.12,12.35-18.17,18.54-3.73,3.81-8,7.3-10.81,11.72-6.84,10.89-15.9,19.29-25.67,27.53-9,7.58-18.3,13.22-29.91,14.72-10.47,1.36-18.83,5.79-24.87,14.78-3.55,5.27-9.18,7.53-15.57,7.53-17.31,0-34.65.4-51.93-.3-12.94-.52-18.17-5.33-20.2-17.8a164.19,164.19,0,0,1-1.74-25.87c-.15-49.29-.07-98.58-.07-147.87Z"/><path class="cls-1" d="M2945.08,3360.75c0,39.33.1,78.65-.08,118a186.63,186.63,0,0,1-1.78,25.88c-1.5,10.28-8,17-18.24,18.58a109,109,0,0,1-25.82,1,25.41,25.41,0,0,1-14.13-6.42,51.61,51.61,0,0,0-34.1-14.67c-9.42-.45-15.78-4.91-21.63-12.26-5.71-7.17-13.45-12.7-20.19-19.08s-13.31-12.92-20-19.39-13-13.39-20.12-19.35c-6.56-5.47-10.79-11.85-11.2-20.31a42.39,42.39,0,0,0-11.33-27.06,48.31,48.31,0,0,1-6.66-9.93c-6.7-13-5.07-26.8,6.4-36.05,9.44-7.61,12.43-16.66,12.51-27.84.05-7.32.18-14.68.93-22,1-9.57,4.83-17.55,12.69-24,11.86-9.68,23-20.29,34.36-30.54,6.58-5.91,13.79-10.56,22.87-11.31,7.74-.64,13.91-4.18,19.05-9.8,10.17-11.11,23.17-15.15,37.79-15,10,.08,20-.28,30,.53,19.67,1.61,27.35,9.68,28.33,29.06.44,8.65.36,17.32.37,26q.06,53,0,106Z"/></svg>